<?xml version="1.0" standalone="no"?>
<!DOCTYPE svg PUBLIC "-//W3C//DTD SVG 20010904//EN"
 "http://www.w3.org/TR/2001/REC-SVG-20010904/DTD/svg10.dtd">
<svg version="1.0" xmlns="http://www.w3.org/2000/svg"
 width="100%" height="100%" viewBox="0 0 1024.000000 1024.000000"
 preserveAspectRatio="xMidYMid meet">
<metadata>
Created by potrace 1.16, written by Peter Selinger 2001-2019
</metadata>
<rect width="100%" height="100%" fill="#1c1c1a"/><g transform="translate(0.000000,1024.000000 ) scale(0.100000,-0.100000)"
fill="#000000" stroke="none">
<path fill="#f5f5dc" d="M8465 7531 c-71 -18 -95 -45 -95 -107 0 -43 35 -95 84 -125 103 -63
229 42 187 154 -22 56 -109 95 -176 78z"/>
<path fill="#f5f5dc" d="M7530 7251 c-192 -70 -224 -85 -262 -123 -117 -117 -41 -322 124
-335 43 -4 75 3 173 37 179 63 238 93 274 142 97 131 3 318 -159 317 -26 0
-88 -16 -150 -38z"/>
<path fill="#f5f5dc" d="M6620 6916 c-384 -137 -409 -150 -446 -229 -30 -65 -30 -108 0 -172
27 -58 47 -78 99 -100 75 -31 100 -26 444 100 112 41 176 87 199 142 18 42 18
124 0 167 -23 54 -81 103 -137 115 -64 14 -49 16 -159 -23z"/>
<path fill="#f5f5dc" d="M5545 6521 c-44 -16 -129 -47 -190 -70 -657 -242 -772 -281 -988
-335 -160 -41 -248 -58 -452 -87 -44 -6 -215 -14 -380 -18 -318 -6 -330 -8
-389 -60 -53 -47 -76 -174 -42 -239 20 -38 65 -78 107 -96 75 -31 527 -24 813
14 314 40 574 110 1021 272 138 50 297 108 355 129 413 150 400 144 437 200
37 56 44 149 15 205 -59 114 -153 140 -307 85z"/>
<path fill="#f5f5dc" d="M8227 6262 c-15 -9 -37 -36 -48 -60 -27 -55 -19 -101 24 -148 61 -66
158 -52 207 28 25 42 25 71 0 124 -33 68 -120 95 -183 56z"/>
<path fill="#f5f5dc" d="M7546 6169 c-54 -10 -109 -25 -122 -34 -60 -39 -79 -118 -45 -187 38
-80 76 -89 266 -62 118 16 145 29 183 84 41 61 20 151 -48 198 -41 27 -95 28
-234 1z"/>
<path fill="#f5f5dc" d="M1904 5715 c-124 -34 -252 -115 -327 -209 -91 -115 -146 -292 -133
-432 23 -248 172 -442 412 -534 81 -31 252 -39 344 -16 320 82 521 395 456
711 -47 231 -214 413 -436 474 -88 25 -237 27 -316 6z"/>
<path fill="#f5f5dc" d="M3185 5297 c-133 -75 -130 -281 5 -357 l45 -25 1651 1 c1245 1 1661
5 1688 14 20 6 51 30 71 53 65 76 70 168 12 253 -63 93 119 84 -1767 84
l-1665 0 -40 -23z"/>
<path fill="#f5f5dc" d="M7135 5304 c-97 -50 -141 -163 -101 -258 20 -49 73 -103 112 -116 25
-9 151 -12 409 -12 356 0 374 1 413 21 52 26 79 61 98 126 27 95 -13 193 -96
235 -37 19 -59 20 -422 20 -327 0 -387 -2 -413 -16z"/>
<path fill="#f5f5dc" d="M8515 5304 c-106 -55 -144 -173 -90 -280 38 -75 80 -99 176 -99 88 0
113 13 163 82 67 96 30 244 -75 299 -37 19 -136 18 -174 -2z"/>
<path fill="#f5f5dc" d="M3211 4630 c-82 -35 -121 -97 -121 -191 0 -75 26 -126 83 -166 l40
-28 246 -7 c273 -7 364 -13 526 -34 484 -62 882 -212 1365 -514 140 -87 555
-334 592 -352 87 -42 194 -13 253 70 27 39 30 52 30 116 0 63 -4 78 -28 115
-16 23 -47 54 -70 68 -23 13 -112 65 -197 115 -85 50 -227 134 -315 188 -630
382 -1039 535 -1620 606 -157 19 -747 30 -784 14z"/>
<path fill="#f5f5dc" d="M6624 4314 c-103 -35 -131 -167 -51 -240 34 -31 182 -92 247 -101 93
-13 174 77 156 172 -12 61 -55 99 -155 135 -126 45 -152 50 -197 34z"/>
<path fill="#f5f5dc" d="M7692 3913 c-64 -31 -95 -107 -73 -175 23 -69 54 -86 354 -190 112
-39 167 -36 209 11 37 42 53 102 37 149 -20 65 -46 84 -167 127 -302 106 -303
107 -360 78z"/>
<path fill="#f5f5dc" d="M6575 3341 c-96 -43 -146 -155 -114 -252 22 -63 56 -94 210 -186 190
-114 220 -126 280 -121 111 11 184 91 183 203 -1 113 -34 146 -294 298 -139
81 -190 92 -265 58z"/>
<path fill="#f5f5dc" d="M7694 2655 c-105 -52 -142 -165 -89 -271 61 -122 213 -146 311 -49
98 99 74 258 -48 319 -65 33 -110 33 -174 1z"/>
</g>
</svg>
